<?xml version="1.0" encoding="UTF-8" standalone="no"?>
<!-- Generator: Adobe Illustrator 18.0.0, SVG Export Plug-In . SVG Version: 6.00 Build 0)  -->

<svg
   xmlns:dc="http://purl.org/dc/elements/1.1/"
   xmlns:cc="http://creativecommons.org/ns#"
   xmlns:rdf="http://www.w3.org/1999/02/22-rdf-syntax-ns#"
   xmlns:svg="http://www.w3.org/2000/svg"
   xmlns="http://www.w3.org/2000/svg"
   xmlns:sodipodi="http://sodipodi.sourceforge.net/DTD/sodipodi-0.dtd"
   xmlns:inkscape="http://www.inkscape.org/namespaces/inkscape"
   version="1.1"
   id="Layer_1"
   x="0px"
   y="0px"
   viewBox="0 0 32 32"
   enable-background="new 0 0 288 72"
   xml:space="preserve"
   inkscape:version="0.91 r13725"
   sodipodi:docname="ExtensionIcon.svg"
   width="32"
   height="32"><metadata
     id="metadata57"><rdf:RDF><cc:Work
         rdf:about=""><dc:format>image/svg+xml</dc:format><dc:type
           rdf:resource="http://purl.org/dc/dcmitype/StillImage" /><dc:title></dc:title></cc:Work></rdf:RDF></metadata><defs
     id="defs55" /><sodipodi:namedview
     pagecolor="#ffffff"
     bordercolor="#666666"
     borderopacity="1"
     objecttolerance="10"
     gridtolerance="10"
     guidetolerance="10"
     inkscape:pageopacity="0"
     inkscape:pageshadow="2"
     inkscape:window-width="1518"
     inkscape:window-height="1090"
     id="namedview53"
     showgrid="false"
     inkscape:zoom="8"
     inkscape:cx="22.116448"
     inkscape:cy="26.196078"
     inkscape:window-x="0"
     inkscape:window-y="23"
     inkscape:window-maximized="0"
     inkscape:current-layer="g5" /><g
     id="g5"
     transform="translate(0,-40)"><g
       id="g4785"
       transform="matrix(0.71066568,0,0,0.71066568,-5.205878,32.703681)"><g
         id="g4787"><path
           d="m 52.3,46 c 0,5.2 -4.2,9.4 -9.4,9.4 l -26.1,0 C 11.6,55.4 7.4,51.2 7.4,46 l 0,-26.2 c 0,-5.2 4.2,-9.4 9.4,-9.4 l 26.1,0 c 5.2,0 9.4,4.2 9.4,9.4 l 0,26.2 z"
           id="path4789"
           inkscape:connector-curvature="0"
           style="fill:#f47721" /></g><g
         id="g4791"><path
           d="m 43,23 c 0.4,-0.3 0.9,-0.6 1.3,-0.9 -0.2,-0.7 -0.6,-1.3 -1,-1.9 -0.5,0.2 -0.9,0.5 -1.4,0.7 -0.3,-0.2 -0.6,-0.5 -1,-0.7 0.1,-0.5 0.2,-1.1 0.3,-1.6 -0.7,-0.2 -1.4,-0.5 -2.1,-0.6 -0.2,0.5 -0.3,1 -0.5,1.5 -0.4,0 -0.8,0.1 -1.1,0.2 -0.3,-0.4 -0.6,-0.9 -0.9,-1.3 -0.7,0.2 -1.3,0.6 -1.9,1.1 0.2,0.5 0.4,1 0.7,1.5 -0.3,0.3 -0.5,0.6 -0.7,0.9 -0.5,-0.1 -1.1,-0.2 -1.6,-0.3 -0.2,0.7 -0.4,1.4 -0.6,2.1 0.5,0.2 1,0.4 1.5,0.5 0,0.4 0.1,0.8 0.1,1.2 -0.4,0.3 -0.9,0.6 -1.3,0.9 0.2,0.7 0.6,1.3 1.1,1.9 0.5,-0.2 1,-0.5 1.5,-0.7 0.3,0.3 0.6,0.5 0.9,0.7 -0.1,0.5 -0.2,1.1 -0.3,1.6 0.7,0.3 1.4,0.4 2.1,0.5 0.1,-0.5 0.3,-1 0.5,-1.5 0.4,0 0.8,-0.1 1.2,-0.1 0.3,0.4 0.6,0.9 0.9,1.3 0.7,-0.3 1.3,-0.6 1.8,-1.1 -0.2,-0.5 -0.5,-1 -0.7,-1.5 0.2,-0.3 0.5,-0.6 0.7,-0.9 0.5,0.1 1.1,0.2 1.6,0.3 0.2,-0.7 0.5,-1.4 0.6,-2.1 -0.5,-0.1 -1,-0.3 -1.5,-0.5 0,-0.4 -0.1,-0.8 -0.2,-1.2 z m -2.2,1.4 c 0,1.3 -1.4,2.2 -2.6,1.8 -1.1,-0.3 -1.8,-1.6 -1.4,-2.7 0.2,-0.7 0.8,-1.1 1.4,-1.3 1.3,-0.4 2.7,0.8 2.6,2.2 z"
           id="path4793"
           inkscape:connector-curvature="0"
           style="fill:#ffffff" /></g><g
         id="g4795"><circle
           cx="38.599998"
           cy="24.200001"
           r="3"
           id="circle4797"
           style="fill:#f36d21" /></g><g
         id="g4799"><path
           d="m 29.8,44.4 c 2.4,-0.1 4,1.6 5.9,2.6 2.8,1.5 5.5,1.2 7.6,-1.3 1,-1.2 1.5,-2.4 1.5,-3.7 l 0,0 c 0,-1.2 -0.5,-2.5 -1.4,-3.6 -2.1,-2.6 -4.8,-2.6 -7.6,-1.2 -1,0.5 -1.9,1.3 -3,1.8 -2.6,1.2 -5.1,1.1 -7.4,-1 -2.3,-2.2 -3.1,-4.7 -1.7,-7.6 0.5,-1 1.2,-2 1.7,-3 1.6,-2.9 1.9,-5.8 -0.8,-8.1 -1.1,-1 -2.4,-1.4 -3.6,-1.4 l 0,0 c -1.2,0 -2.5,0.5 -3.7,1.4 -2.8,2.2 -3.1,5.3 -1.2,8 2.8,3.9 3.1,7.4 0.1,11.3 -1.9,2.5 -1.9,5.4 0.5,7.7 1.2,1.2 2.5,1.7 3.8,1.7 l 0,0 c 1.3,0 2.7,-0.5 4,-1.3 1.7,-1.1 3.2,-2.5 5.3,-2.3 z"
           id="path4801"
           inkscape:connector-curvature="0"
           style="fill:#ffffff" /></g></g></g></svg>